# xmcd CD database file
#
# Track frame offsets:
#	150
#	14406
#	35587
#	55616
#	64912
#	92922
#	116515
#	133706
#	187017
#	215783
#	231976
#
# Disc length: 3472 seconds
#
# Revision: 0
# Processed by: cddbd v1.4PL0 Copyright (c) Steve Scherf et al.
# Submitted via: CDex 1.50Beta5
#
DISCID=a30d8e0b
DTITLE=Airto Moreira - Best Picks #1
DYEAR=2001
DGENRE=Jazz
TTITLE0=Open Space
TTITLE1=Xibaba
TTITLE2=Mixing
TTITLE3=Identity
TTITLE4=Flora On My Mind
TTITLE5=I'm Fine
TTITLE6=Happy People
TTITLE7=Free
TTITLE8=Tombo
TTITLE9=Aqui Se Puede
TTITLE10=Pandeiro Solo
EXTD=YEAR: 2001
EXTT0=
EXTT1=
EXTT2=
EXTT3=
EXTT4=
EXTT5=
EXTT6=
EXTT7=
EXTT8=
EXTT9=
EXTT10=
PLAYORDER=
